<mxfile host="app.diagrams.net" modified="2023-11-09T10:49:18.756Z" agent="Mozilla/5.0 (Macintosh; Intel Mac OS X 10_15_7) AppleWebKit/537.36 (KHTML, like Gecko) Chrome/119.0.0.0 Safari/537.36" etag="R922TJt23dyU37XZCLym" version="22.1.0" type="github">
  <diagram id="UuGPtFalo_Fr8a2b1HCH" name="第 1 页">
    <mxGraphModel dx="1594" dy="749" grid="1" gridSize="10" guides="1" tooltips="1" connect="1" arrows="1" fold="1" page="1" pageScale="1" pageWidth="827" pageHeight="1169" math="0" shadow="0">
      <root>
        <mxCell id="0" />
        <mxCell id="1" parent="0" />
        <mxCell id="frRTnPI2C42zO0nqIEbH-5" value="订阅" style="rounded=0;whiteSpace=wrap;html=1;" vertex="1" parent="1">
          <mxGeometry x="170" y="190" width="100" height="50" as="geometry" />
        </mxCell>
        <mxCell id="frRTnPI2C42zO0nqIEbH-6" value="能源" style="rounded=0;whiteSpace=wrap;html=1;" vertex="1" parent="1">
          <mxGeometry x="170" y="260" width="100" height="50" as="geometry" />
        </mxCell>
        <mxCell id="frRTnPI2C42zO0nqIEbH-7" value="" style="rounded=0;whiteSpace=wrap;html=1;" vertex="1" parent="1">
          <mxGeometry x="170" y="330" width="100" height="50" as="geometry" />
        </mxCell>
        <mxCell id="frRTnPI2C42zO0nqIEbH-8" value="留资" style="rounded=0;whiteSpace=wrap;html=1;fillColor=#9FA1A2;" vertex="1" parent="1">
          <mxGeometry x="390" y="460" width="80" height="60" as="geometry" />
        </mxCell>
        <mxCell id="frRTnPI2C42zO0nqIEbH-9" value="外呼" style="rounded=0;whiteSpace=wrap;html=1;fillColor=#9FA1A2;" vertex="1" parent="1">
          <mxGeometry x="490" y="460" width="80" height="60" as="geometry" />
        </mxCell>
        <mxCell id="frRTnPI2C42zO0nqIEbH-10" value="跟进" style="rounded=0;whiteSpace=wrap;html=1;fillColor=#9FA1A2;" vertex="1" parent="1">
          <mxGeometry x="580" y="460" width="80" height="60" as="geometry" />
        </mxCell>
        <mxCell id="frRTnPI2C42zO0nqIEbH-11" value="试驾" style="rounded=0;whiteSpace=wrap;html=1;fillColor=#9FA1A2;" vertex="1" parent="1">
          <mxGeometry x="685" y="460" width="80" height="60" as="geometry" />
        </mxCell>
        <mxCell id="frRTnPI2C42zO0nqIEbH-18" value="下单" style="rounded=0;whiteSpace=wrap;html=1;fillColor=#9FA1A2;" vertex="1" parent="1">
          <mxGeometry x="390" y="565" width="80" height="60" as="geometry" />
        </mxCell>
        <mxCell id="frRTnPI2C42zO0nqIEbH-19" value="排产" style="rounded=0;whiteSpace=wrap;html=1;fillColor=#9FA1A2;" vertex="1" parent="1">
          <mxGeometry x="590" y="565" width="80" height="60" as="geometry" />
        </mxCell>
        <mxCell id="frRTnPI2C42zO0nqIEbH-20" value="运输" style="rounded=0;whiteSpace=wrap;html=1;fillColor=#9FA1A2;" vertex="1" parent="1">
          <mxGeometry x="685" y="565" width="80" height="60" as="geometry" />
        </mxCell>
        <mxCell id="frRTnPI2C42zO0nqIEbH-21" value="到店" style="rounded=0;whiteSpace=wrap;html=1;fillColor=#9FA1A2;" vertex="1" parent="1">
          <mxGeometry x="785" y="565" width="80" height="60" as="geometry" />
        </mxCell>
        <mxCell id="frRTnPI2C42zO0nqIEbH-22" value="交付" style="rounded=0;whiteSpace=wrap;html=1;fillColor=#9FA1A2;" vertex="1" parent="1">
          <mxGeometry x="885" y="565" width="80" height="60" as="geometry" />
        </mxCell>
        <mxCell id="frRTnPI2C42zO0nqIEbH-23" value="交付尾款" style="rounded=0;whiteSpace=wrap;html=1;" vertex="1" parent="1">
          <mxGeometry x="700" y="170" width="275" height="60" as="geometry" />
        </mxCell>
        <mxCell id="frRTnPI2C42zO0nqIEbH-24" value="锁单" style="rounded=0;whiteSpace=wrap;html=1;fillColor=#9FA1A2;" vertex="1" parent="1">
          <mxGeometry x="490" y="565" width="80" height="60" as="geometry" />
        </mxCell>
        <mxCell id="frRTnPI2C42zO0nqIEbH-25" value="400" style="rounded=0;whiteSpace=wrap;html=1;fillColor=#9FA1A2;" vertex="1" parent="1">
          <mxGeometry x="390" y="790" width="80" height="60" as="geometry" />
        </mxCell>
        <mxCell id="frRTnPI2C42zO0nqIEbH-26" value="IM" style="rounded=0;whiteSpace=wrap;html=1;fillColor=#9FA1A2;" vertex="1" parent="1">
          <mxGeometry x="490" y="790" width="80" height="60" as="geometry" />
        </mxCell>
        <mxCell id="frRTnPI2C42zO0nqIEbH-27" value="服务大厅" style="rounded=0;whiteSpace=wrap;html=1;fillColor=#9FA1A2;" vertex="1" parent="1">
          <mxGeometry x="590" y="790" width="80" height="60" as="geometry" />
        </mxCell>
        <mxCell id="frRTnPI2C42zO0nqIEbH-28" value="售后" style="rounded=0;whiteSpace=wrap;html=1;" vertex="1" parent="1">
          <mxGeometry x="290" y="940" width="80" height="60" as="geometry" />
        </mxCell>
        <mxCell id="frRTnPI2C42zO0nqIEbH-29" value="取送车" style="rounded=0;whiteSpace=wrap;html=1;fillColor=#9FA1A2;" vertex="1" parent="1">
          <mxGeometry x="390" y="680" width="80" height="60" as="geometry" />
        </mxCell>
        <mxCell id="frRTnPI2C42zO0nqIEbH-30" value="道路救援" style="rounded=0;whiteSpace=wrap;html=1;fillColor=#9FA1A2;" vertex="1" parent="1">
          <mxGeometry x="490" y="680" width="80" height="60" as="geometry" />
        </mxCell>
        <mxCell id="frRTnPI2C42zO0nqIEbH-31" value="服务预约" style="rounded=0;whiteSpace=wrap;html=1;fillColor=#9FA1A2;" vertex="1" parent="1">
          <mxGeometry x="590" y="680" width="80" height="60" as="geometry" />
        </mxCell>
        <mxCell id="frRTnPI2C42zO0nqIEbH-32" value="充电补能" style="rounded=0;whiteSpace=wrap;html=1;fillColor=#9FA1A2;" vertex="1" parent="1">
          <mxGeometry x="685" y="680" width="80" height="60" as="geometry" />
        </mxCell>
        <mxCell id="frRTnPI2C42zO0nqIEbH-34" value="代驾" style="rounded=0;whiteSpace=wrap;html=1;fillColor=#9FA1A2;" vertex="1" parent="1">
          <mxGeometry x="785" y="680" width="80" height="60" as="geometry" />
        </mxCell>
        <mxCell id="frRTnPI2C42zO0nqIEbH-36" value="家冲桩" style="rounded=0;whiteSpace=wrap;html=1;fillColor=#9FA1A2;" vertex="1" parent="1">
          <mxGeometry x="990" y="565" width="80" height="60" as="geometry" />
        </mxCell>
        <mxCell id="frRTnPI2C42zO0nqIEbH-37" value="问卷" style="rounded=0;whiteSpace=wrap;html=1;fillColor=#9FA1A2;" vertex="1" parent="1">
          <mxGeometry x="685" y="790" width="80" height="60" as="geometry" />
        </mxCell>
        <mxCell id="frRTnPI2C42zO0nqIEbH-38" value="" style="rounded=0;whiteSpace=wrap;html=1;" vertex="1" parent="1">
          <mxGeometry x="280" y="460" width="80" height="390" as="geometry" />
        </mxCell>
        <mxCell id="frRTnPI2C42zO0nqIEbH-41" value="售前" style="rounded=0;whiteSpace=wrap;html=1;fillColor=#FA9855;" vertex="1" parent="1">
          <mxGeometry x="280" y="460" width="80" height="60" as="geometry" />
        </mxCell>
        <mxCell id="frRTnPI2C42zO0nqIEbH-42" value="售中" style="rounded=0;whiteSpace=wrap;html=1;fillColor=#FA9855;" vertex="1" parent="1">
          <mxGeometry x="280" y="564" width="80" height="66" as="geometry" />
        </mxCell>
        <mxCell id="frRTnPI2C42zO0nqIEbH-43" value="售后" style="rounded=0;whiteSpace=wrap;html=1;fillColor=#FA9855;" vertex="1" parent="1">
          <mxGeometry x="280" y="680" width="80" height="60" as="geometry" />
        </mxCell>
        <mxCell id="frRTnPI2C42zO0nqIEbH-44" value="体验" style="rounded=0;whiteSpace=wrap;html=1;fillColor=#FA9855;" vertex="1" parent="1">
          <mxGeometry x="280" y="790" width="80" height="60" as="geometry" />
        </mxCell>
        <mxCell id="frRTnPI2C42zO0nqIEbH-45" value="留资" style="rounded=0;whiteSpace=wrap;html=1;fillColor=#9FA1A2;" vertex="1" parent="1">
          <mxGeometry x="1190" y="585" width="80" height="60" as="geometry" />
        </mxCell>
        <mxCell id="frRTnPI2C42zO0nqIEbH-46" value="外呼" style="rounded=0;whiteSpace=wrap;html=1;fillColor=#9FA1A2;" vertex="1" parent="1">
          <mxGeometry x="1190" y="665" width="80" height="60" as="geometry" />
        </mxCell>
        <mxCell id="frRTnPI2C42zO0nqIEbH-47" value="跟进" style="rounded=0;whiteSpace=wrap;html=1;fillColor=#9FA1A2;" vertex="1" parent="1">
          <mxGeometry x="1290" y="585" width="80" height="60" as="geometry" />
        </mxCell>
        <mxCell id="frRTnPI2C42zO0nqIEbH-48" value="试驾" style="rounded=0;whiteSpace=wrap;html=1;fillColor=#9FA1A2;" vertex="1" parent="1">
          <mxGeometry x="1290" y="665" width="80" height="60" as="geometry" />
        </mxCell>
        <mxCell id="frRTnPI2C42zO0nqIEbH-53" value="留资" style="rounded=1;whiteSpace=wrap;html=1;" vertex="1" parent="1">
          <mxGeometry x="890" y="870" width="75" height="30" as="geometry" />
        </mxCell>
        <mxCell id="frRTnPI2C42zO0nqIEbH-54" value="试驾" style="rounded=1;whiteSpace=wrap;html=1;" vertex="1" parent="1">
          <mxGeometry x="1410" y="555" width="120" height="60" as="geometry" />
        </mxCell>
        <mxCell id="frRTnPI2C42zO0nqIEbH-55" value="跟进" style="rounded=1;whiteSpace=wrap;html=1;" vertex="1" parent="1">
          <mxGeometry x="980" y="870" width="75" height="30" as="geometry" />
        </mxCell>
        <mxCell id="frRTnPI2C42zO0nqIEbH-56" value="外呼" style="rounded=1;whiteSpace=wrap;html=1;" vertex="1" parent="1">
          <mxGeometry x="890" y="912" width="75" height="30" as="geometry" />
        </mxCell>
        <mxCell id="frRTnPI2C42zO0nqIEbH-57" value="试驾" style="rounded=1;whiteSpace=wrap;html=1;" vertex="1" parent="1">
          <mxGeometry x="980" y="911" width="75" height="30" as="geometry" />
        </mxCell>
        <mxCell id="frRTnPI2C42zO0nqIEbH-58" value="下单" style="rounded=1;whiteSpace=wrap;html=1;" vertex="1" parent="1">
          <mxGeometry x="890" y="1030" width="75" height="30" as="geometry" />
        </mxCell>
        <mxCell id="frRTnPI2C42zO0nqIEbH-59" value="锁单" style="rounded=1;whiteSpace=wrap;html=1;" vertex="1" parent="1">
          <mxGeometry x="980" y="1030" width="75" height="30" as="geometry" />
        </mxCell>
        <mxCell id="frRTnPI2C42zO0nqIEbH-60" value="运输" style="rounded=1;whiteSpace=wrap;html=1;" vertex="1" parent="1">
          <mxGeometry x="890" y="1115" width="75" height="30" as="geometry" />
        </mxCell>
        <mxCell id="frRTnPI2C42zO0nqIEbH-61" value="到店" style="rounded=1;whiteSpace=wrap;html=1;" vertex="1" parent="1">
          <mxGeometry x="980" y="1115" width="75" height="30" as="geometry" />
        </mxCell>
        <mxCell id="frRTnPI2C42zO0nqIEbH-62" value="注册" style="rounded=1;whiteSpace=wrap;html=1;" vertex="1" parent="1">
          <mxGeometry x="890" y="955" width="75" height="30" as="geometry" />
        </mxCell>
        <mxCell id="frRTnPI2C42zO0nqIEbH-63" value="排产" style="rounded=1;whiteSpace=wrap;html=1;" vertex="1" parent="1">
          <mxGeometry x="890" y="1070" width="75" height="30" as="geometry" />
        </mxCell>
        <mxCell id="frRTnPI2C42zO0nqIEbH-67" value="APP行为" style="rounded=1;whiteSpace=wrap;html=1;" vertex="1" parent="1">
          <mxGeometry x="980" y="955" width="75" height="30" as="geometry" />
        </mxCell>
        <mxCell id="frRTnPI2C42zO0nqIEbH-69" value="交车" style="rounded=1;whiteSpace=wrap;html=1;" vertex="1" parent="1">
          <mxGeometry x="980" y="1070" width="75" height="30" as="geometry" />
        </mxCell>
        <mxCell id="frRTnPI2C42zO0nqIEbH-70" value="家冲桩" style="rounded=1;whiteSpace=wrap;html=1;" vertex="1" parent="1">
          <mxGeometry x="890" y="1190" width="75" height="30" as="geometry" />
        </mxCell>
        <mxCell id="frRTnPI2C42zO0nqIEbH-71" value="取送车" style="rounded=1;whiteSpace=wrap;html=1;" vertex="1" parent="1">
          <mxGeometry x="980" y="1190" width="75" height="30" as="geometry" />
        </mxCell>
        <mxCell id="frRTnPI2C42zO0nqIEbH-72" value="充电补能" style="rounded=1;whiteSpace=wrap;html=1;" vertex="1" parent="1">
          <mxGeometry x="890" y="1275" width="75" height="30" as="geometry" />
        </mxCell>
        <mxCell id="frRTnPI2C42zO0nqIEbH-74" value="道路救援" style="rounded=1;whiteSpace=wrap;html=1;" vertex="1" parent="1">
          <mxGeometry x="890" y="1230" width="75" height="30" as="geometry" />
        </mxCell>
        <mxCell id="frRTnPI2C42zO0nqIEbH-75" value="服务预约" style="rounded=1;whiteSpace=wrap;html=1;" vertex="1" parent="1">
          <mxGeometry x="980" y="1230" width="75" height="30" as="geometry" />
        </mxCell>
        <mxCell id="frRTnPI2C42zO0nqIEbH-77" value="代驾" style="rounded=1;whiteSpace=wrap;html=1;" vertex="1" parent="1">
          <mxGeometry x="980" y="1275" width="75" height="30" as="geometry" />
        </mxCell>
        <mxCell id="frRTnPI2C42zO0nqIEbH-78" value="用户交互图" style="rounded=1;whiteSpace=wrap;html=1;" vertex="1" parent="1">
          <mxGeometry x="1160" y="890" width="150" height="90" as="geometry" />
        </mxCell>
        <mxCell id="frRTnPI2C42zO0nqIEbH-80" value="用户交互图" style="rounded=1;whiteSpace=wrap;html=1;" vertex="1" parent="1">
          <mxGeometry x="1160" y="1030" width="150" height="90" as="geometry" />
        </mxCell>
      </root>
    </mxGraphModel>
  </diagram>
</mxfile>
